<svg width="52" height="52" viewBox="0 0 52 52" fill="none" xmlns="http://www.w3.org/2000/svg">
<circle cx="26.0002" cy="26" r="26" fill="#3485FF"/>
<path d="M34.0002 35V33C34.0002 31.9392 33.5787 30.9217 32.8286 30.1716C32.0784 29.4215 31.061 29 30.0002 29H22.0002C20.9393 29 19.9219 29.4215 19.1717 30.1716C18.4216 30.9217 18.0002 31.9392 18.0002 33V35" stroke="#FAFAFA" stroke-width="2" stroke-linecap="round" stroke-linejoin="round"/>
<path d="M26.0002 25C28.2093 25 30.0002 23.2092 30.0002 21C30.0002 18.7909 28.2093 17 26.0002 17C23.791 17 22.0002 18.7909 22.0002 21C22.0002 23.2092 23.791 25 26.0002 25Z" stroke="#FAFAFA" stroke-width="2" stroke-linecap="round" stroke-linejoin="round"/>
</svg>
