<svg width="24" height="24" viewBox="0 0 24 24" fill="none" xmlns="http://www.w3.org/2000/svg">
<path d="M3.00012 6.00003H5.00012H21.0001" stroke="#E83F5B" stroke-width="2" stroke-linecap="round" stroke-linejoin="round"/>
<path d="M8.00012 6.00003V4.00003C8.00012 3.4696 8.21084 2.96089 8.58591 2.58582C8.96098 2.21074 9.46969 2.00003 10.0001 2.00003H14.0001C14.5306 2.00003 15.0393 2.21074 15.4143 2.58582C15.7894 2.96089 16.0001 3.4696 16.0001 4.00003V6.00003M19.0001 6.00003V20C19.0001 20.5305 18.7894 21.0392 18.4143 21.4142C18.0393 21.7893 17.5306 22 17.0001 22H7.00012C6.46969 22 5.96098 21.7893 5.58591 21.4142C5.21084 21.0392 5.00012 20.5305 5.00012 20V6.00003H19.0001Z" stroke="#E83F5B" stroke-width="2" stroke-linecap="round" stroke-linejoin="round"/>
</svg>
